<?xml version="1.0" standalone="no"?>
<!DOCTYPE svg PUBLIC "-//W3C//DTD SVG 20010904//EN"
 "http://www.w3.org/TR/2001/REC-SVG-20010904/DTD/svg10.dtd">
<svg version="1.0" xmlns="http://www.w3.org/2000/svg"
 width="477.000000pt" height="477.000000pt" viewBox="0 0 477.000000 477.000000"
 preserveAspectRatio="xMidYMid meet">
<metadata>
Created by potrace 1.11, written by Peter Selinger 2001-2013
</metadata>
<g transform="translate(0.000000,477.000000) scale(0.100000,-0.100000)"
fill="#000000" stroke="none">
<path d="M0 2385 l0 -2385 2385 0 2385 0 0 2385 0 2385 -2385 0 -2385 0 0
-2385z m2065 2214 c52 -103 69 -171 68 -279 -1 -215 -108 -372 -318 -471 -83
-38 -198 -69 -259 -69 -44 0 -45 -9 -15 -143 73 -333 238 -638 440 -815 l37
-32 38 16 c94 40 176 54 324 54 148 0 230 -14 323 -53 38 -17 39 -16 75 13 49
39 146 154 205 243 101 152 194 376 236 570 30 138 29 147 -15 147 -99 0 -253
55 -362 128 -166 113 -244 306 -208 511 15 86 73 221 116 271 l22 25 -6 -25
c-47 -226 -27 -393 66 -547 43 -73 160 -189 231 -232 32 -18 86 -44 122 -57
l64 -23 11 42 c27 110 91 189 177 218 55 18 230 8 270 -16 39 -23 63 -69 63
-121 0 -32 -7 -45 -48 -84 -53 -51 -119 -77 -219 -87 l-63 -6 -5 -36 c-43
-265 -136 -510 -272 -715 -64 -96 -190 -235 -262 -288 l-34 -26 61 -70 c112
-131 170 -238 312 -577 99 -236 161 -365 222 -462 22 -35 41 -63 42 -63 2 0
48 25 103 55 l100 55 -29 58 c-75 152 -48 303 78 427 99 97 209 135 388 135
178 0 306 -44 414 -144 109 -101 157 -231 150 -401 -13 -267 -156 -441 -423
-511 -109 -28 -419 -26 -533 4 -99 26 -190 68 -254 117 -26 19 -51 35 -57 35
-5 0 -40 -17 -78 -39 -72 -40 -511 -271 -517 -271 -2 0 -79 -36 -171 -81
l-169 -81 139 -59 c434 -186 738 -269 985 -269 134 0 203 15 305 65 86 42 170
124 221 215 l35 65 -5 -52 c-12 -119 -90 -219 -219 -283 -113 -55 -202 -73
-372 -73 -313 0 -608 79 -1137 304 l-78 33 -77 -33 c-43 -18 -145 -60 -228
-93 -82 -33 -152 -62 -154 -64 -2 -2 97 -52 220 -112 573 -280 1013 -397 1424
-379 77 4 151 9 165 12 14 2 5 -2 -20 -10 -134 -46 -422 -60 -596 -30 -296 51
-770 229 -1159 435 l-110 59 -138 -39 c-478 -136 -849 -109 -1032 74 -86 86
-125 196 -104 294 9 46 20 64 63 107 62 62 118 84 232 92 92 6 197 -13 279
-51 28 -13 188 -105 355 -206 l305 -183 61 21 c102 36 384 156 384 165 0 4 -5
7 -11 7 -27 0 -592 283 -821 411 -48 27 -92 49 -98 49 -6 0 -34 -18 -63 -40
-112 -84 -253 -127 -447 -137 -287 -14 -484 42 -617 176 -148 149 -187 435
-87 633 15 29 55 81 90 115 71 72 153 115 260 138 83 18 242 19 316 4 222 -48
382 -245 349 -433 -6 -33 -24 -87 -39 -119 l-29 -57 96 -53 c53 -28 98 -53
102 -55 10 -5 84 115 137 223 27 55 82 179 122 275 142 343 226 498 338 618
l49 53 -58 44 c-246 190 -447 576 -514 988 -5 34 -8 37 -40 37 -92 0 -207 44
-259 98 -38 41 -45 104 -17 149 36 57 63 68 186 71 104 3 113 2 165 -25 65
-33 113 -97 137 -184 l16 -57 51 18 c121 41 221 111 302 208 146 177 185 370
129 627 l-6 30 21 -25 c12 -14 37 -55 55 -91z"/>
<path d="M1203 4018 c-45 -56 -5 -132 91 -171 16 -6 18 -4 12 24 -8 44 -45
114 -71 139 -17 16 -24 18 -32 8z"/>
<path d="M3522 4007 c-24 -26 -72 -124 -72 -149 0 -21 18 -16 72 20 42 27 62
67 53 105 -11 42 -29 50 -53 24z"/>
<path d="M2309 2781 c-38 -38 -38 -79 -2 -115 47 -47 99 -47 146 0 36 36 36
77 -2 115 -23 23 -38 29 -71 29 -33 0 -48 -6 -71 -29z"/>
<path d="M1996 2596 c-86 -106 -157 -242 -287 -553 -109 -260 -183 -408 -254
-508 -38 -53 -50 -76 -42 -83 72 -55 930 -492 967 -492 19 0 330 149 535 258
216 113 416 222 432 234 8 7 -2 28 -37 76 -71 98 -147 248 -250 497 -134 320
-205 458 -297 571 l-33 41 -72 -26 c-69 -25 -83 -26 -278 -26 -195 0 -209 1
-278 26 l-72 26 -34 -41z"/>
<path d="M504 2191 c-80 -41 -175 -140 -214 -223 -88 -188 -46 -443 97 -583
86 -85 230 -145 349 -145 69 0 193 33 263 70 68 37 184 128 176 140 -3 4 -51
34 -107 65 l-103 57 -62 -16 c-71 -18 -286 -22 -345 -6 -78 22 -130 90 -131
171 -1 81 13 89 157 89 117 0 124 -2 216 -39 52 -21 98 -37 101 -35 16 9 31
111 27 174 -9 118 -86 222 -208 278 -84 39 -142 40 -216 3z"/>
<path d="M4057 2196 c-103 -43 -192 -135 -217 -226 -21 -76 3 -250 33 -237 7
3 46 20 87 38 69 31 85 34 203 37 110 3 131 2 147 -13 67 -61 1 -214 -105
-244 -62 -17 -278 -14 -346 5 l-58 16 -105 -56 c-58 -31 -108 -61 -111 -66 -7
-12 106 -102 176 -140 69 -36 193 -70 260 -70 171 0 363 109 432 245 79 158
85 343 15 492 -33 70 -138 177 -210 213 -74 37 -122 38 -201 6z"/>
<path d="M623 1698 c7 -49 61 -108 98 -108 24 0 109 39 109 50 0 7 -191 100
-205 100 -4 0 -5 -19 -2 -42z"/>
<path d="M4026 1692 c-106 -51 -106 -52 -39 -86 46 -23 69 -20 109 17 26 24
37 43 41 75 3 23 2 42 -3 42 -5 0 -53 -22 -108 -48z"/>
<path d="M837 1049 c-132 -31 -203 -111 -195 -218 5 -52 8 -58 68 -114 111
-104 234 -147 420 -147 131 0 276 23 440 69 186 52 181 42 54 114 -60 35 -173
100 -252 146 -79 45 -167 94 -197 107 -101 47 -245 65 -338 43z"/>
</g>
</svg>
